<?xml version="1.0" encoding="UTF-8"?>
<svg width="932px" height="412px" viewBox="0 0 932 412" version="1.1" xmlns="http://www.w3.org/2000/svg" xmlns:xlink="http://www.w3.org/1999/xlink">
    <title>Artboard</title>
    <g id="Artboard" stroke="none" stroke-width="1" fill="none" fill-rule="evenodd" fill-opacity="0">
        <path d="M188.165146,175.759955 C201.865636,163.697794 205.079782,147.093109 202.45429,131.459962 C198.445723,107.58308 179.278058,96.8649181 158.625739,93.4189568 C144.363753,91.0408641 129.612763,90.5691814 114.808365,90.3059456 L111.106404,90.2434967 C98.1474136,90.0332463 85.1753234,89.8742537 72.4819466,88.629007 C59.2607109,87.3292831 47.3652435,81.73969 45.2372398,74.8738152 C42.9946316,67.6276623 46.6724045,59.6339722 50.8659031,55.1904282 C60.3025719,45.2093868 81.6763805,39.2551437 105.376149,38.6039806 C127.695448,37.9997017 151.111306,42.974596 162.462398,54.7997337 C171.453674,64.1634739 171.873022,77.6243385 171.873022,77.6243385 L198.312888,77.5461983 L198.313023,77.5422053 L198.313917,77.5105029 C198.314704,77.4789347 198.315758,77.4266432 198.316394,77.3544877 L198.316366,77.0792877 C198.3009,75.1363561 197.947752,67.3731502 193.585436,58.3941582 C179.520293,29.4251713 154.786477,22.2050629 136.902908,18.6002186 C126.218608,16.446167 50.5272976,8.921315 24.2905933,48.5928326 C13.9891769,64.155653 15.8593212,85.638858 27.335437,98.2167412 C41.418811,113.664957 69.4266796,115.845053 109.908247,116.360775 C138.744395,116.725429 162.550954,117.535475 171.044739,126.216792 C180.864291,136.260346 177.978334,154.313218 158.740343,162.468396 C134.675924,172.670836 83.2183357,173.410559 62.4383896,162.541328 C42.7263523,152.232098 42.6117477,132.866477 42.6117477,132.866477 L15.2889042,132.910755 C15.2889042,132.910755 15.6457436,157.79564 33.5397289,173.465251 C66.6318882,202.423818 159.727509,200.803722 188.165146,175.759955 Z" id="s3" stroke="#3126AE" stroke-width="5" fill="#FFFFFF" fill-rule="nonzero"></path>
        <polygon id="i3" stroke="#3126AE" stroke-width="5" fill="#FFFFFF" fill-rule="nonzero" points="247.18563 192 247.18563 16.5243107 220.263904 16.5243107 220.263904 192"></polygon>
        <polygon id="t2" stroke="#3126AE" stroke-width="5" fill="#FFFFFF" fill-rule="nonzero" points="364.46366 192.000003 364.46366 39.7604496 438.714597 39.7604496 438.714597 16.5243107 263.238904 16.5243107 263.238904 39.7604496 337.489841 39.7604496 337.489841 192.000003"></polygon>
        <polygon id="e1" stroke="#3126AE" stroke-width="5" fill="#FFFFFF" fill-rule="nonzero" points="590.514804 192 590.514804 168.318493 479.256235 168.318493 479.327457 114.340681 558.24207 114.313974 558.24207 91.2556664 479.327457 91.2823734 479.256235 39.6727135 590.514804 39.6727135 590.514804 16.525375 452.369714 16.525375 452.369714 192"></polygon>
        <polygon id="v1" stroke="#3126AE" stroke-width="5" fill="#FFFFFF" fill-rule="nonzero" points="145.394904 392.205767 244.99175 215.573609 212.470011 215.573609 130.29571 364.846459 46.0585228 215.482446 13.7139008 215.581423 114.227587 392.205767"></polygon>
        <polygon id="i2" stroke="#3126AE" stroke-width="5" fill="#FFFFFF" fill-rule="nonzero" points="287.68563 392 287.68563 216.524311 260.763904 216.524311 260.763904 392"></polygon>
        <path d="M477.515146,375.759955 C491.215636,363.697794 494.429782,347.093109 491.80429,331.459962 C487.795723,307.58308 468.628058,296.864918 447.975739,293.418957 C433.713753,291.040864 418.962763,290.569181 404.158365,290.305946 L400.456404,290.243497 C387.497414,290.033246 374.525323,289.874254 361.831947,288.629007 C348.610711,287.329283 336.715244,281.73969 334.58724,274.873815 C332.344632,267.627662 336.022404,259.633972 340.215903,255.190428 C349.652572,245.209387 371.026381,239.255144 394.726149,238.603981 C417.045448,237.999702 440.461306,242.974596 451.812398,254.799734 C460.803674,264.163474 461.223022,277.624339 461.223022,277.624339 L487.662888,277.546198 L487.663023,277.542205 L487.663917,277.510503 C487.664704,277.478935 487.665758,277.426643 487.666394,277.354488 L487.666366,277.079288 C487.6509,275.136356 487.297752,267.37315 482.935436,258.394158 C468.870293,229.425171 444.136477,222.205063 426.252908,218.600219 C415.568608,216.446167 339.877298,208.921315 313.640593,248.592833 C303.339177,264.155653 305.209321,285.638858 316.685437,298.216741 C330.768811,313.664957 358.77668,315.845053 399.258247,316.360775 C428.094395,316.725429 451.900954,317.535475 460.394739,326.216792 C470.214291,336.260346 467.328334,354.313218 448.090343,362.468396 C424.025924,372.670836 372.568336,373.410559 351.78839,362.541328 C332.076352,352.232098 331.961748,332.866477 331.961748,332.866477 L304.638904,332.910755 C304.638904,332.910755 304.995744,357.79564 322.889729,373.465251 C355.981888,402.423818 449.077509,400.803722 477.515146,375.759955 Z" id="s2" stroke="#3126AE" stroke-width="5" fill="#FFFFFF" fill-rule="nonzero"></path>
        <polygon id="i1" stroke="#3126AE" stroke-width="5" fill="#FFFFFF" fill-rule="nonzero" points="536.53563 392 536.53563 216.524311 509.613904 216.524311 509.613904 392"></polygon>
        <polygon id="t1" stroke="#3126AE" stroke-width="5" fill="#FFFFFF" fill-rule="nonzero" points="653.81366 392.000003 653.81366 239.76045 728.064597 239.76045 728.064597 216.524311 552.588904 216.524311 552.588904 239.76045 626.839841 239.76045 626.839841 392.000003"></polygon>
        <path d="M910.640146,375.759955 C924.340636,363.697794 927.554782,347.093109 924.92929,331.459962 C920.920723,307.58308 901.753058,296.864918 881.100739,293.418957 C866.838753,291.040864 852.087763,290.569181 837.283365,290.305946 L833.581404,290.243497 C820.622414,290.033246 807.650323,289.874254 794.956947,288.629007 C781.735711,287.329283 769.840244,281.73969 767.71224,274.873815 C765.469632,267.627662 769.147404,259.633972 773.340903,255.190428 C782.777572,245.209387 804.151381,239.255144 827.851149,238.603981 C850.170448,237.999702 873.586306,242.974596 884.937398,254.799734 C893.928674,264.163474 894.348022,277.624339 894.348022,277.624339 L920.787888,277.546198 L920.788023,277.542205 L920.788917,277.510503 C920.789704,277.478935 920.790758,277.426643 920.791394,277.354488 L920.791366,277.079288 C920.7759,275.136356 920.422752,267.37315 916.060436,258.394158 C901.995293,229.425171 877.261477,222.205063 859.377908,218.600219 C848.693608,216.446167 773.002298,208.921315 746.765593,248.592833 C736.464177,264.155653 738.334321,285.638858 749.810437,298.216741 C763.893811,313.664957 791.90168,315.845053 832.383247,316.360775 C861.219395,316.725429 885.025954,317.535475 893.519739,326.216792 C903.339291,336.260346 900.453334,354.313218 881.215343,362.468396 C857.150924,372.670836 805.693336,373.410559 784.91339,362.541328 C765.201352,352.232098 765.086748,332.866477 765.086748,332.866477 L737.763904,332.910755 C737.763904,332.910755 738.120744,357.79564 756.014729,373.465251 C789.106888,402.423818 882.202509,400.803722 910.640146,375.759955 Z" id="s1" stroke="#3126AE" stroke-width="5" fill="#FFFFFF" fill-rule="nonzero"></path>
    </g>
</svg>
